<?xml version="1.0" encoding="utf-8"?>
<!-- Generator: Adobe Illustrator 22.0.1, SVG Export Plug-In . SVG Version: 6.00 Build 0)  -->
<svg version="1.1" id="Capa_1" xmlns="http://www.w3.org/2000/svg" xmlns:xlink="http://www.w3.org/1999/xlink" x="0px" y="0px"
	 viewBox="0 0 2318.1 358.1" style="enable-background:new 0 0 2318.1 358.1;" xml:space="preserve">
<style type="text/css">
	.st0{fill:#EB7A0C;}
	.st1{fill:#A4C2F7;}
	.st2{fill:#E3E7F2;}
	.st3{fill:#FFFFFF;}
	.st4{fill:#428DFF;}
</style>
<g>
	<path class="st0" d="M185.4,340.9l99.4-66.3"/>
	<g>
		<polygon class="st1" points="219,231.8 185.4,340.9 284.9,274.6 		"/>
		<polygon class="st1" points="219,231.8 185.9,340.9 160.2,198.2 504.4,21.9 		"/>
		<path class="st1" d="M496.3,37.3c-3,0.1-5.8-1.5-7.3-4.1L219,231.8l167.9,109.1l112-304.1C498.1,37.1,497.2,37.2,496.3,37.3z"/>
	</g>
	<polygon class="st2" points="454,55.5 219,231.8 370.1,324.1 470.8,47.1 	"/>
	<path class="st3" d="M477,27.6L17,122.6l143.2,75.5l323-165.5C480.4,32.2,478,30.3,477,27.6z"/>
	<path class="st2" d="M454,47.1L42.7,139.4l117.5,58.8l300-145.9C457.4,51.8,455,49.8,454,47.1z"/>
	<g>
		<path class="st4" d="M386.9,349.3c-1.6,0-3.2-0.5-4.6-1.4L214.4,238.8c-2.3-1.5-3.7-4-3.8-6.8s1.2-5.4,3.4-7L415.4,76.9
			L164.1,205.6c-2.4,1.2-5.3,1.2-7.7,0L13.1,130.1c-3.1-1.7-4.9-5.1-4.4-8.6s3.1-6.3,6.6-7L502.5,13.7c3.4-0.8,6.8,0.6,8.8,3.5
			c0.2,0.3,0.3,0.5,0.5,0.8c0.8,1.5,1.1,3.1,1,4.8c0,0.4-0.1,0.9-0.2,1.3c-0.1,0.3-0.2,0.6-0.3,0.9L394.7,343.8
			C393.5,347.1,390.4,349.3,386.9,349.3z M233.7,231.3l148.9,96.8L486.8,45.2L233.7,231.3z M41.6,126.1l118.7,62.6L445.4,42.7
			L41.6,126.1z"/>
		<path class="st4" d="M185.4,349.3c-3.7,0-7-2.4-8-6c-1.1-3.5,0.3-7.4,3.4-9.4l99.4-66.3c2.5-1.7,5.7-1.9,8.4-0.6
			c2.7,1.3,4.5,4,4.7,7c0.2,3-1.3,5.9-3.8,7.5l-99.4,66.3C188.7,348.8,187.1,349.3,185.4,349.3L185.4,349.3z"/>
		<path class="st4" d="M185.9,349.3c-0.2,0-0.3,0-0.5,0c-3.9-0.2-7.1-3.1-7.8-6.9L152,199.7c-0.7-3.6,1.1-7.3,4.4-9L500.5,14.4
			c3.9-2,8.7-0.7,11,3.1s1.4,8.6-2.2,11.2L226.2,236.9L194,343.3C192.9,346.8,189.6,349.3,185.9,349.3L185.9,349.3z M169.6,202.8
			L188,305.1l22.9-75.7c0.5-1.7,1.6-3.3,3.1-4.3L415.4,76.9L169.6,202.8z"/>
		<path class="st4" d="M185.4,349.3c-2.7,0-5.2-1.3-6.8-3.4s-2.1-4.9-1.3-7.5L211,229.3c0.8-2.5,2.7-4.5,5.2-5.4s5.2-0.6,7.4,0.9
			l65.9,42.8c2.4,1.5,3.8,4.2,3.8,7s-1.4,5.5-3.7,7l-99.4,66.3C188.7,348.8,187.1,349.3,185.4,349.3z M223.7,244.8l-23.4,76
			l69.2-46.1L223.7,244.8z"/>
	</g>
</g>
<g>
	<path d="M602.8,90.7c0-4,3.5-7.5,7.5-7.5h2.3c3.2,0,5.5,1.7,7.5,4.3l136.4,173.1V90.1c0-4,3.2-7.2,7.2-7.2s7.2,3.2,7.2,7.2v190.7
		c0,3.5-2.6,6.4-6.1,6.4h-1.2c-2.9,0-5.2-2-7.5-4.9L617.2,106v174.2c0,4-3.2,7.2-7.2,7.2s-7.2-3.2-7.2-7.2V90.7z"/>
	<path d="M832.8,276.5l86.4-187.2c2-4.3,4.9-7.2,10.1-7.2h0.6c5.2,0,8.1,2.9,10.1,7.2l86.1,186.6c0.9,1.7,1.2,3.2,1.2,4.6
		c0,3.8-3.2,6.9-7.2,6.9c-3.5,0-6.1-2.6-7.5-5.8l-23.7-52H869.5L845.8,282c-1.4,3.5-3.8,5.5-7.2,5.5c-3.8,0-6.9-2.9-6.9-6.4
		C831.6,280,831.9,278.2,832.8,276.5z M982.4,216.1l-53.2-117l-53.4,117H982.4z"/>
	<path d="M1075.5,260.9c-1.4-1.2-2.9-3.2-2.9-5.8c0-4,3.5-7.5,7.5-7.5c2,0,3.8,0.9,4.9,1.7c20.2,18.2,40.4,26.3,68.2,26.3
		c30.3,0,51.1-17,51.1-40.2v-0.6c0-21.4-11.3-33.8-57.2-43c-48.5-9.8-68.2-26.3-68.2-56.9v-0.6c0-30,27.4-53.2,65-53.2
		c27.2,0,45.9,6.9,64.4,20.8c1.4,1.2,3.2,3.2,3.2,6.1c0,4-3.5,7.5-7.5,7.5c-1.7,0-3.5-0.6-4.9-1.7c-17.6-13.6-35.2-19.1-55.8-19.1
		c-29.8,0-49.4,17-49.4,38.1v0.6c0,21.4,11,34.4,58.9,44.2c46.8,9.5,66.4,26.3,66.4,55.8v0.6c0,32.6-28,55.2-67,55.2
		C1122,289.2,1098.3,279.7,1075.5,260.9z"/>
	<path d="M1274.2,185.8v-0.6c0-55.2,40.7-104.6,102-104.6c61.2,0,101.4,48.8,101.4,104v0.6c0,55.2-40.7,104.6-102,104.6
		S1274.2,241,1274.2,185.8z M1462,185.8v-0.6c0-50-36.4-91-86.4-91s-85.8,40.4-85.8,90.4v0.6c0,50,36.4,91,86.4,91
		S1462,235.7,1462,185.8z"/>
	<path d="M1543.2,90.4c0-4,3.5-7.5,7.5-7.5c4,0,7.5,3.5,7.5,7.5V217l127.7-131.7c1.2-1.2,2.9-2.3,5.2-2.3c3.8,0,7.5,3.8,7.5,7.5
		c0,2-0.9,3.8-2.3,5.2l-77.1,77.7l82.3,100.8c1.4,1.7,2.3,3.2,2.3,5.5c0,4-3.8,7.8-7.8,7.8c-2.6,0-4.6-1.4-5.8-2.9L1608.5,184
		l-50.3,50.8V280c0,4-3.5,7.5-7.5,7.5c-4,0-7.5-3.5-7.5-7.5V90.4z"/>
	<path d="M1766.2,90.4c0-4,3.5-7.5,7.5-7.5c4,0,7.5,3.5,7.5,7.5V280c0,4-3.5,7.5-7.5,7.5c-4,0-7.5-3.5-7.5-7.5V90.4z"/>
	<path d="M1857.8,90.7c0-4,3.5-7.5,7.5-7.5h2.3c3.2,0,5.5,1.7,7.5,4.3l136.4,173.1V90.1c0-4,3.2-7.2,7.2-7.2s7.2,3.2,7.2,7.2v190.7
		c0,3.5-2.6,6.4-6.1,6.4h-1.2c-2.9,0-5.2-2-7.5-4.9l-139-176.2v174.2c0,4-3.2,7.2-7.2,7.2s-7.2-3.2-7.2-7.2V90.7z"/>
	<path d="M2097.6,88.4c0-4.9,3.8-8.7,8.7-8.7c4.9,0,9,3.8,9,8.7v4.9c0,4.9-4,8.7-9,8.7c-4.9,0-8.7-3.8-8.7-8.7V88.4z M2099.3,145
		c0-4,2.9-7.2,6.9-7.2c4,0,7.2,2.9,7.2,7.2v135.2c0,4.3-2.9,7.2-6.9,7.2c-4,0-7.2-2.9-7.2-7.2V145z"/>
	<path d="M2171.6,243.5V243c0-30.6,26.3-48,64.4-48c20.5,0,34.7,2.6,48.8,6.4V195c0-29.8-18.2-45.1-48.5-45.1
		c-16.2,0-29.8,4-41.9,9.8c-1.2,0.6-2.3,0.9-3.2,0.9c-3.5,0-6.6-3.2-6.6-6.6c0-3.5,2.6-5.8,4-6.4c15-6.6,29.8-11,48.5-11
		c19.9,0,35.8,5.5,46.5,16.2c9.8,9.8,15,23.4,15,41.6v85.8c0,4.3-2.9,7.2-6.9,7.2s-6.9-2.9-6.9-7.2v-18.5
		c-10.1,14.2-28.3,28-56.3,28C2201,289.8,2171.6,274.2,2171.6,243.5z M2285.1,231.1v-16.8c-12.4-3.2-28.9-6.6-50-6.6
		c-31.2,0-48.5,13.9-48.5,34.4v0.6c0,21.4,20.2,33.8,42.8,33.8C2259.4,276.5,2285.1,258,2285.1,231.1z"/>
</g>
</svg>
