<svg id="logo" data-name="logo" xmlns="http://www.w3.org/2000/svg" width="1581.96" height="256" viewBox="0 0 1581.96 256">
  <defs>
    <style>
      .cls-1 {
        fill: #eb7a0c;
      }

      .cls-2 {
        fill: #a4c2f7;
      }

      .cls-3 {
        fill: #e3e7f2;
      }

      .cls-4 {
        fill: #fff;
      }

      .cls-5 {
        fill: #428dff;
      }
    </style>
  </defs>
  <title>logo</title>
  <g>
    <path class="cls-1" d="M128.88,235l66.74-44.49"/>
    <g>
      <polygon class="cls-2" points="151.41 161.8 128.88 235.03 195.62 190.53 151.41 161.8"/>
      <polygon class="cls-2" points="151.41 161.8 129.24 235.03 111.98 139.27 342.94 20.97 151.41 161.8"/>
      <path class="cls-2" d="M337.54,31.29a5.42,5.42,0,0,1-4.9-2.75L151.41,161.8,264.07,235l75.2-204.09A6,6,0,0,1,337.54,31.29Z"/>
    </g>
    <polygon class="cls-3" points="309.14 43.5 151.41 161.8 252.81 223.76 320.4 37.87 309.14 43.5"/>
    <path class="cls-4" d="M324.59,24.76,15.86,88.57,112,139.27l216.8-111A5.44,5.44,0,0,1,324.59,24.76Z"/>
    <path class="cls-3" d="M309.14,37.87l-276,62L112,139.27,313.33,41.33A5.44,5.44,0,0,1,309.14,37.87Z"/>
    <g>
      <path class="cls-5" d="M264.07,240.66a5.67,5.67,0,0,1-3.07-.9L148.34,166.52a5.63,5.63,0,0,1-.27-9.26L283.23,57.88l-168.68,86.4a5.62,5.62,0,0,1-5.2,0L13.23,93.55a5.63,5.63,0,0,1,1.49-10.5l327-67.57a5.51,5.51,0,0,1,6.21,2.84,5.56,5.56,0,0,1,.64,3.2,5.28,5.28,0,0,1-.15.87,5.8,5.8,0,0,1-.19.59L269.36,237A5.62,5.62,0,0,1,264.07,240.66ZM161.31,161.51l99.92,65L331.17,36.62ZM32.37,90.91l79.65,42,191.38-98Z"/>
      <path class="cls-5" d="M128.88,240.66a5.64,5.64,0,0,1-3.13-10.32l66.74-44.49a5.63,5.63,0,1,1,6.25,9.37L132,239.72a5.66,5.66,0,0,1-3.12.94Z"/>
      <path class="cls-5" d="M129.24,240.66h-.33a5.63,5.63,0,0,1-5.22-4.62l-17.26-95.76a5.64,5.64,0,0,1,3-6L340.37,16a5.63,5.63,0,0,1,5.91,9.55l-190,139.72-21.63,71.43a5.63,5.63,0,0,1-5.39,4Zm-11-98.29L130.63,211,146,160.17a5.6,5.6,0,0,1,2-2.91L283.23,57.88Z"/>
      <path class="cls-5" d="M128.88,240.66a5.64,5.64,0,0,1-5.39-7.29L146,160.14a5.64,5.64,0,0,1,8.46-3.07l44.21,28.74a5.63,5.63,0,0,1,.05,9.41L132,239.72A5.66,5.66,0,0,1,128.88,240.66Zm25.72-70.07-15.69,51,46.46-31Z"/>
    </g>
  </g>
  <g>
    <path d="M403.32,65a5.62,5.62,0,0,1,5.52-5.52h1.7c2.33,0,4,1.27,5.51,3.18L516.2,189.73V64.55a5.31,5.31,0,0,1,10.61,0v140a4.53,4.53,0,0,1-4.46,4.66h-.85c-2.12,0-3.82-1.48-5.51-3.6L413.93,76.22V204.16a5.31,5.31,0,1,1-10.61,0Z"/>
    <path d="M561.6,201.4,625,63.92c1.49-3.19,3.61-5.31,7.43-5.31h.42c3.82,0,5.94,2.12,7.43,5.31L703.55,201a7.34,7.34,0,0,1,.85,3.4,5.22,5.22,0,0,1-5.31,5.09c-2.54,0-4.45-1.91-5.51-4.25L676.18,167H588.55l-17.4,38.41c-1.06,2.54-2.76,4-5.3,4a5,5,0,0,1-5.1-4.67A8.05,8.05,0,0,1,561.6,201.4Zm109.91-44.34-39-85.93-39.25,85.93Z"/>
    <path d="M729.22,190a5.53,5.53,0,0,1-2.12-4.25,5.61,5.61,0,0,1,5.52-5.51,6.09,6.09,0,0,1,3.6,1.27c14.85,13.37,29.71,19.31,50.07,19.31,22.28,0,37.56-12.52,37.56-29.49v-.43c0-15.7-8.27-24.82-42-31.61-35.65-7.22-50.07-19.31-50.07-41.8V97c0-22.07,20.15-39,47.74-39,19.94,0,33.73,5.09,47.31,15.27a5.77,5.77,0,0,1,2.33,4.46,5.61,5.61,0,0,1-5.51,5.51A5.76,5.76,0,0,1,820,82c-12.94-10-25.88-14-40.95-14-21.85,0-36.28,12.52-36.28,28v.43c0,15.7,8.06,25.25,43.28,32.46,34.38,7,48.8,19.31,48.8,40.95v.42c0,24-20.58,40.53-49.22,40.53C763.38,210.74,746,203.74,729.22,190Z"/>
    <path d="M864.59,134.78v-.42c0-40.53,29.91-76.81,74.9-76.81S1014,93.41,1014,133.93v.43c0,40.52-29.92,76.8-74.9,76.8S864.59,175.31,864.59,134.78Zm137.91,0v-.42c0-36.71-26.73-66.84-63.44-66.84s-63,29.71-63,66.41v.43c0,36.7,26.73,66.83,63.44,66.83S1002.5,171.49,1002.5,134.78Z"/>
    <path d="M1051.51,64.76a5.52,5.52,0,0,1,11,0V157.7L1156.33,61a5.36,5.36,0,0,1,3.82-1.7,5.93,5.93,0,0,1,5.51,5.51,5.27,5.27,0,0,1-1.7,3.82l-56.65,57.08,60.47,74.05a5.79,5.79,0,0,1,1.7,4,6,6,0,0,1-5.73,5.73,5.48,5.48,0,0,1-4.24-2.13l-60-73.83-36.92,37.34V204a5.52,5.52,0,1,1-11,0Z"/>
    <path d="M1204.7,64.76a5.52,5.52,0,0,1,11,0V204a5.52,5.52,0,1,1-11,0Z"/>
    <path d="M1261.35,65a5.62,5.62,0,0,1,5.52-5.52h1.69c2.34,0,4,1.27,5.52,3.18l100.15,127.09V64.55a5.3,5.3,0,1,1,10.6,0v140a4.52,4.52,0,0,1-4.45,4.66h-.85c-2.12,0-3.82-1.48-5.52-3.6L1272,76.22V204.16a5.31,5.31,0,1,1-10.61,0Z"/>
    <path d="M1426.85,63.28a6.25,6.25,0,0,1,6.36-6.37,6.43,6.43,0,0,1,6.58,6.37v3.61a6.43,6.43,0,0,1-6.58,6.36,6.25,6.25,0,0,1-6.36-6.36Zm1.27,41.59a5.2,5.2,0,1,1,10.4,0v99.29a5,5,0,0,1-5.1,5.31,5.13,5.13,0,0,1-5.3-5.31Z"/>
    <path d="M1470.55,177.22v-.43c0-22.49,19.31-35.22,47.32-35.22a130,130,0,0,1,35.85,4.67v-4.67c0-21.85-13.36-33.1-35.64-33.1a69.93,69.93,0,0,0-30.77,7.22,5.55,5.55,0,0,1-2.33.63,5.08,5.08,0,0,1-4.88-4.88,5.3,5.3,0,0,1,3-4.67c11-4.87,21.85-8.06,35.65-8.06,14.64,0,26.31,4,34.16,11.88,7.21,7.22,11,17.19,11,30.56v63a5.1,5.1,0,1,1-10.19,0V190.58c-7.42,10.4-20.79,20.58-41.37,20.58C1492.19,211.16,1470.55,199.71,1470.55,177.22Zm83.39-9.13v-12.3a143.25,143.25,0,0,0-36.71-4.88c-22.91,0-35.65,10.18-35.65,25.25v.42c0,15.7,14.86,24.82,31.41,24.82C1535.05,201.4,1553.94,187.83,1553.94,168.09Z"/>
  </g>
</svg>
